<svg xmlns="http://www.w3.org/2000/svg" width="21" height="21">
    <path fill-rule="evenodd" opacity="0.8" d="M20.672 19.125l-5.176-5.198a8.277 8.277 0 0 0 2.059-5.451c0-4.674-3.937-8.478-8.778-8.478-4.843 0-8.78 3.804-8.78 8.478 0 4.675 3.937 8.479 8.78 8.479a8.888 8.888 0 0 0 5.029-1.535l5.214 5.238c.219.219.512.339.825.339.299 0 .58-.109.795-.309.453-.422.47-1.123.032-1.563zM8.777 2.209c3.578 0 6.489 2.812 6.489 6.267 0 3.456-2.911 6.267-6.489 6.267-3.58 0-6.49-2.811-6.49-6.267 0-3.455 2.91-6.267 6.49-6.267z"/>
</svg>
